# xmcd
#
# Track frame offsets:
#	150
#	9990
#	20610
#	32378
#	44371
#	53379
#	65559
#	76682
#	86890
#	97255
#
# Disc length: 1441 seconds
#
# Revision: 1
# Processed by: cddbd v1.5.2PL0 Copyright (c) Steve Scherf et al.
# Submitted via: audiograbber 1.83.01
#
DISCID=6f059f0a
DTITLE=Lester Flatt and Mac Wiseman - Lester 'N' Mac
DYEAR=1971
DGENRE=Country
TTITLE0=You're The Best Of All The Leading Brands
TTITLE1=Special
TTITLE2=Homestead On The Farm
TTITLE3=Your Love Is Like A  Flower
TTITLE4=Now That You Have Me
TTITLE5=The Bluebirds Singing For Me
TTITLE6=Will You Be Loving Another Man
TTITLE7=Jimmie Brown, The Newsboy
TTITLE8=Sweetheart You Done Me Wrong
TTITLE9=I'll Never Love Another
EXTD=This CD was created from one of my LP's
EXTT0=
EXTT1=
EXTT2=
EXTT3=
EXTT4=
EXTT5=
EXTT6=
EXTT7=
EXTT8=
EXTT9=
PLAYORDER=
